<?xml version="1.0" standalone="no"?>
<!DOCTYPE svg PUBLIC "-//W3C//DTD SVG 20010904//EN"
 "http://www.w3.org/TR/2001/REC-SVG-20010904/DTD/svg10.dtd">
<svg version="1.0" xmlns="http://www.w3.org/2000/svg"
 width="512.000000pt" height="512.000000pt" viewBox="0 0 512.000000 512.000000"
 preserveAspectRatio="xMidYMid meet">
<metadata>
Created by potrace 1.14, written by Peter Selinger 2001-2017
</metadata>
<g transform="translate(0.000000,512.000000) scale(0.100000,-0.100000)"
fill="#000000" stroke="none">
<path d="M940 4938 c-373 -80 -475 -290 -304 -631 85 -168 254 -377 306 -377
31 0 69 42 62 68 -2 9 -18 69 -35 132 -37 137 -46 273 -24 347 19 63 78 117
154 140 280 82 767 -116 1346 -548 94 -70 179 -135 190 -145 11 -11 53 -46 93
-78 85 -68 285 -253 417 -383 574 -566 1025 -1226 1155 -1688 49 -175 47 -322
-5 -424 -30 -59 -67 -94 -130 -123 -74 -34 -250 -31 -388 6 -54 14 -103 23
-109 20 -6 -4 -8 -2 -4 4 8 13 -29 26 -46 16 -7 -4 -9 -3 -5 1 10 11 -81 48
-95 39 -6 -4 -8 -3 -5 3 5 8 -183 106 -208 107 -5 1 -20 11 -34 24 -13 12 -29
22 -36 22 -7 0 -18 7 -25 15 -7 8 -16 12 -21 9 -5 -3 -9 -1 -9 5 0 5 -16 15
-35 22 -19 7 -35 16 -35 19 0 6 -44 30 -54 30 -1 0 -3 -7 -3 -15 0 -10 6 -13
18 -10 11 4 23 -2 32 -15 7 -11 16 -18 19 -15 9 9 6 -30 -4 -41 -10 -14 0 -46
13 -38 5 3 6 -3 2 -12 -6 -16 -8 -15 -16 4 -6 12 -14 22 -19 22 -5 0 -6 -5 -3
-10 3 -6 1 -10 -4 -10 -16 0 -14 11 6 32 9 10 11 18 5 18 -5 0 -22 -14 -37
-32 -25 -29 -26 -33 -10 -44 18 -13 49 -8 39 7 -3 5 0 9 5 9 16 0 13 -20 -4
-26 -8 -4 -12 -11 -8 -18 4 -6 -1 -5 -10 3 -14 11 -21 11 -42 -3 -30 -20 -31
-25 -5 -23 11 1 20 5 20 9 0 4 5 8 11 8 8 0 8 -5 -1 -15 -7 -8 -16 -12 -21 -9
-5 3 -9 0 -9 -5 0 -6 6 -11 14 -11 20 0 29 -30 11 -36 -8 -4 -13 -10 -10 -14
3 -5 1 -11 -5 -15 -11 -7 -60 23 -60 37 0 5 10 0 22 -12 32 -30 43 -24 16 9
-13 15 -26 27 -29 25 -3 -2 -5 10 -4 27 1 18 -3 28 -9 26 -6 -2 -10 -14 -9
-26 2 -11 -3 -21 -10 -21 -8 0 -7 -3 3 -10 8 -5 11 -12 7 -17 -9 -9 -28 17
-21 29 9 14 -14 8 -30 -8 -20 -20 -20 -31 -1 -31 10 0 14 6 10 16 -5 13 -4 13
6 4 10 -10 9 -15 -1 -28 -14 -17 0 -21 17 -4 8 8 18 6 37 -6 14 -10 26 -22 26
-27 0 -5 5 -6 11 -2 6 3 3 -5 -6 -20 -20 -30 -31 -35 -16 -8 6 11 6 24 0 33
-5 7 -9 10 -9 5 0 -6 -6 -2 -13 9 -8 10 -19 15 -25 11 -17 -10 -15 -26 3 -20
8 4 15 1 15 -6 0 -6 -4 -8 -10 -5 -5 3 -10 1 -10 -4 0 -6 5 -11 10 -11 6 0 1
-9 -10 -20 -11 -11 -20 -25 -20 -31 0 -8 -4 -8 -14 1 -12 9 -15 8 -13 -9 2
-27 22 -27 40 -1 8 11 17 17 22 12 4 -4 5 1 2 11 -4 9 -2 17 3 17 20 0 9 -27
-21 -49 -29 -22 -67 -22 -54 -1 3 5 2 10 -4 10 -20 0 -21 -19 0 -33 13 -10 17
-17 9 -22 -6 -4 -8 -16 -5 -28 6 -20 5 -21 -6 -3 -19 30 -43 56 -52 56 -5 0
-3 -8 4 -17 12 -14 12 -16 0 -9 -9 6 -12 5 -9 -5 3 -8 14 -12 24 -11 15 3 14
0 -6 -16 -14 -11 -22 -23 -18 -27 4 -4 14 0 23 9 23 23 32 20 10 -4 -19 -21
-7 -28 13 -8 9 9 15 9 24 0 10 -10 10 -15 -2 -22 -8 -6 -21 -8 -27 -5 -7 3
-20 8 -29 11 -14 6 -14 4 -3 -14 7 -11 18 -18 24 -14 11 6 -14 -29 -28 -39 -4
-3 -1 -12 8 -19 12 -10 15 -10 15 4 0 9 5 16 10 16 7 0 7 -6 0 -20 -10 -19
-40 -18 -40 3 0 5 -9 2 -20 -8 -32 -29 -23 -8 10 23 26 25 28 31 16 47 -11 16
-15 16 -32 4 -10 -8 -20 -23 -22 -34 -2 -18 -1 -18 18 4 11 13 23 22 25 19 3
-3 -9 -19 -26 -36 -33 -33 -32 -48 7 -62 23 -9 23 -10 6 -39 -9 -16 -18 -28
-21 -26 -2 3 4 16 13 30 17 27 18 26 -36 29 -14 1 -33 8 -42 15 -27 23 -18 -4
10 -28 21 -18 28 -20 35 -10 4 7 11 10 16 6 7 -8 -14 -27 -29 -27 -4 0 -19 12
-33 27 -14 15 -25 23 -25 17 0 -5 5 -15 12 -22 7 -7 8 -12 2 -12 -5 0 -15 9
-22 20 -9 15 -9 20 0 20 15 0 1 13 -17 16 -19 3 -19 -6 1 -34 8 -12 11 -22 6
-22 -5 0 -14 10 -21 23 l-11 22 6 -22 c3 -13 1 -23 -5 -23 -6 0 -11 -4 -11 -9
0 -5 20 -8 44 -7 54 4 74 -5 51 -24 -13 -11 -15 -10 -10 1 4 10 -1 15 -14 16
-22 2 -35 -32 -17 -45 18 -14 46 -22 46 -13 0 5 -9 11 -20 14 -11 3 -20 11
-19 19 0 10 2 10 6 1 2 -7 11 -13 18 -13 23 0 28 -20 9 -41 -19 -21 -34 -25
-34 -8 0 5 4 8 9 4 5 -3 12 -1 16 5 3 5 1 10 -6 10 -7 0 -21 7 -31 17 -10 9
-18 11 -18 5 0 -6 5 -14 10 -17 6 -3 10 -12 10 -18 0 -7 -4 -6 -10 3 -5 8 -23
15 -40 16 -25 1 -28 -1 -19 -12 7 -9 20 -12 32 -8 12 4 17 2 13 -4 -9 -15 -53
-21 -65 -9 -7 7 -11 7 -11 1 0 -5 5 -15 11 -21 8 -8 8 -13 0 -17 -6 -4 -11
-12 -11 -19 0 -6 11 1 25 16 30 31 32 32 32 12 0 -8 -4 -12 -9 -9 -10 6 -11
-10 -1 -19 3 -4 12 -2 20 4 9 9 13 8 13 0 0 -6 -4 -11 -9 -11 -5 0 -13 -9 -16
-20 -6 -20 -7 -20 -25 2 -11 13 -19 20 -20 16 0 -17 23 -55 42 -67 11 -7 17
-8 13 -2 -3 6 -1 11 4 11 6 0 11 -7 11 -16 0 -10 5 -14 16 -10 8 3 13 2 10 -3
-8 -12 145 -103 162 -96 7 3 11 1 8 -4 -9 -14 197 -127 337 -186 140 -57 357
-115 532 -141 65 -10 334 -11 408 -2 171 22 352 89 488 180 176 117 260 248
288 448 10 65 7 329 -3 385 -3 17 -8 44 -11 60 -3 17 -7 41 -10 55 -3 14 -7
36 -10 50 -11 59 -69 250 -110 364 -169 466 -478 978 -874 1446 -257 304 -692
732 -1011 997 -260 215 -563 416 -845 560 -183 93 -469 192 -635 218 -25 4
-54 10 -65 12 -11 3 -87 6 -170 8 -114 1 -170 -3 -235 -17z m2226 -3446 c1 -7
0 -8 -3 -2 -2 5 -9 8 -14 4 -5 -3 -9 0 -9 6 0 15 23 7 26 -8z m-24 -34 c-7 -7
-12 -8 -12 -2 0 14 12 26 19 19 2 -3 -1 -11 -7 -17z m58 8 c-1 -5 4 -13 12
-18 11 -8 11 -9 0 -6 -8 2 -13 7 -12 12 1 5 -4 13 -12 18 -11 8 -11 9 0 6 8
-2 13 -7 12 -12z m-20 -16 c6 -11 7 -20 2 -20 -6 0 -12 9 -15 20 -3 11 -3 20
-1 20 2 0 8 -9 14 -20z m-105 -30 c3 -5 1 -10 -4 -10 -6 0 -11 5 -11 10 0 6 2
10 4 10 3 0 8 -4 11 -10z m90 -12 c-9 -6 -19 -7 -22 -4 -4 3 -1 6 6 6 7 0 9 4
6 10 -4 6 1 7 11 3 15 -6 15 -7 -1 -15z m45 -9 c0 -5 -4 -9 -8 -9 -5 0 -9 7
-9 15 0 8 4 12 9 9 4 -3 8 -9 8 -15z m110 6 c0 -2 -6 -8 -13 -14 -10 -8 -14
-7 -14 2 0 8 6 14 14 14 7 0 13 -1 13 -2z m-200 -25 c-6 -11 -13 -20 -16 -20
-2 0 0 9 6 20 6 11 13 20 16 20 2 0 0 -9 -6 -20z m62 -15 c-2 -11 -6 -22 -9
-25 -3 -3 -4 5 -1 17 5 17 1 21 -13 20 -11 -1 -19 -7 -19 -14 0 -7 -5 -13 -10
-13 -7 0 -7 6 -1 19 14 26 57 23 53 -4z m62 13 c-5 -8 -1 -9 12 -4 14 5 16 4
7 -5 -13 -13 -37 -3 -28 12 4 5 8 9 11 9 3 0 2 -5 -2 -12z m84 -8 c-7 -10 -14
-17 -17 -15 -4 4 18 35 25 35 2 0 -1 -9 -8 -20z m-218 -32 c0 -6 -7 -5 -16 3
-13 11 -15 9 -9 -17 5 -26 5 -27 -5 -6 -5 13 -8 28 -5 32 7 11 35 1 35 -12z
m96 2 c0 -12 -4 -16 -9 -11 -5 5 -6 14 -3 20 10 15 12 14 12 -9z m90 -2 c3 -4
-1 -5 -10 -4 -8 1 -18 5 -22 8 -3 4 1 5 10 4 8 -1 18 -5 22 -8z m-123 -28 c3
-11 3 -20 1 -20 -2 0 -8 9 -14 20 -6 11 -7 20 -2 20 6 0 12 -9 15 -20z m88 3
c13 -16 12 -17 -3 -4 -17 13 -22 21 -14 21 2 0 10 -8 17 -17z m165 -9 c1 -9 0
-13 -4 -10 -3 4 -7 14 -8 22 -1 9 0 13 4 10 3 -4 7 -14 8 -22z m48 18 c3 -5
-1 -9 -9 -9 -8 0 -12 4 -9 9 3 4 7 8 9 8 2 0 6 -4 9 -8z m-344 -12 c0 -5 -4
-10 -10 -10 -5 0 -10 5 -10 10 0 6 5 10 10 10 6 0 10 -4 10 -10z m-15 -30 c3
-6 -1 -7 -9 -4 -18 7 -21 14 -7 14 6 0 13 -4 16 -10z m35 0 c0 -5 -4 -10 -10
-10 -5 0 -10 5 -10 10 0 6 5 10 10 10 6 0 10 -4 10 -10z m100 1 c0 -3 -13 -7
-30 -7 -16 -1 -30 1 -30 5 0 3 14 7 30 7 17 1 30 -1 30 -5z m-147 -18 c3 -5 0
-17 -4 -28 -9 -18 -9 -18 -5 3 3 17 -1 22 -16 22 -10 0 -17 -4 -13 -9 3 -6 -5
-15 -17 -21 -22 -11 -22 -10 -4 4 11 9 16 16 12 16 -4 0 -4 5 -1 10 7 12 42
13 48 3z m71 -8 c-4 -8 -11 -12 -16 -9 -6 4 -5 10 3 15 19 12 19 11 13 -6z
m166 -9 c0 -2 -8 -10 -17 -17 -16 -13 -17 -12 -4 4 13 16 21 21 21 13z m80 -6
c-8 -5 -19 -10 -25 -10 -5 0 -3 5 5 10 8 5 20 10 25 10 6 0 3 -5 -5 -10z
m-275 -10 c4 -6 -1 -7 -11 -3 -12 4 -15 3 -10 -5 4 -7 2 -12 -3 -12 -12 0 -14
13 -4 23 9 10 21 9 28 -3z m-62 -13 c3 -8 2 -20 -3 -26 -5 -9 -7 -4 -7 13 0
29 2 32 10 13z m-41 -14 c-12 -2 -20 -8 -17 -13 6 -10 -34 -35 -43 -26 -3 3 0
6 7 6 7 0 9 4 6 10 -3 6 1 7 10 4 9 -4 15 -3 14 2 -3 19 2 24 24 23 l22 -2
-23 -4z m238 1 c0 -8 -19 -13 -24 -6 -3 5 1 9 9 9 8 0 15 -2 15 -3z m-157 -19
c-3 -9 -8 -14 -10 -11 -3 3 -2 9 2 15 9 16 15 13 8 -4z m37 -20 c0 -1 -6 -7
-13 -13 -10 -8 -13 -6 -13 7 0 11 6 17 13 14 7 -3 13 -6 13 -8z m-73 -8 c2 -3
-10 -4 -26 -3 -17 0 -31 4 -31 9 0 7 48 2 57 -6z m-124 -12 c-3 -9 -8 -14 -10
-11 -3 3 -2 9 2 15 9 16 15 13 8 -4z m23 -21 c-4 -19 -1 -24 10 -20 7 3 14 1
14 -5 0 -6 -7 -9 -17 -7 -16 3 -27 34 -17 50 10 16 14 8 10 -18z m39 16 c3 -6
-1 -7 -9 -4 -18 7 -21 14 -7 14 6 0 13 -4 16 -10z m155 6 c0 -2 -8 -10 -17
-17 -16 -13 -17 -12 -4 4 13 16 21 21 21 13z m130 -6 c0 -5 -2 -10 -4 -10 -3
0 -8 5 -11 10 -3 6 -1 10 4 10 6 0 11 -4 11 -10z m-360 -20 c8 -5 11 -10 5
-10 -5 0 -17 5 -25 10 -8 5 -10 10 -5 10 6 0 17 -5 25 -10z m194 -6 c3 -8 2
-12 -4 -9 -6 3 -10 10 -10 16 0 14 7 11 14 -7z m-50 -10 c3 -8 2 -12 -4 -9 -6
3 -10 10 -10 16 0 14 7 11 14 -7z m-155 -13 c6 -10 7 -21 4 -25 -3 -3 1 -6 10
-6 10 0 17 -5 17 -10 0 -7 -6 -7 -20 0 -11 6 -19 14 -19 18 3 20 -2 33 -11 27
-5 -3 -10 -1 -10 4 0 18 18 13 29 -8z m387 4 c-1 -8 -5 -17 -8 -21 -5 -4 -4
16 1 34 3 9 9 -1 7 -13z m-355 -12 c13 -16 12 -17 -3 -4 -17 13 -22 21 -14 21
2 0 10 -8 17 -17z m69 2 c5 3 11 1 14 -4 4 -5 -2 -8 -11 -7 -9 2 -18 8 -19 15
-1 6 0 7 3 1 2 -5 9 -8 13 -5z m148 -10 c-3 -3 -9 2 -12 12 -6 14 -5 15 5 6 7
-7 10 -15 7 -18z m-21 -10 c0 -8 -4 -12 -9 -9 -5 3 -6 10 -3 15 9 13 12 11 12
-6z m-143 -20 c-4 -8 -10 -13 -14 -10 -5 3 -11 -1 -13 -7 -4 -10 -6 -10 -6 0
-1 7 6 15 14 18 8 4 12 11 8 17 -3 6 -1 7 5 3 6 -4 9 -13 6 -21z m66 10 c-5
-7 -9 -14 -7 -16 1 -2 0 -3 -2 -2 -2 2 -9 -1 -15 -7 -8 -6 -12 -2 -13 13 -2
17 0 19 7 7 8 -13 14 -8 12 11 -1 3 6 6 13 6 10 0 12 -4 5 -12z m45 5 c3 -6
-1 -7 -9 -4 -18 7 -21 14 -7 14 6 0 13 -4 16 -10z m-183 -37 c-6 -2 -9 -10 -6
-15 4 -7 2 -8 -5 -4 -13 9 -5 26 12 25 9 0 8 -2 -1 -6z m315 -8 c0 -8 -4 -12
-9 -9 -5 3 -6 10 -3 15 9 13 12 11 12 -6z m-343 -12 c4 -10 4 -14 0 -10 -4 4
-12 0 -18 -8 -8 -11 -15 -12 -26 -4 -12 9 -12 10 4 5 14 -5 17 -2 12 9 -3 9
-2 13 4 10 6 -3 10 -1 10 4 0 16 7 13 14 -6z m126 3 c0 -2 -7 -7 -16 -10 -8
-3 -12 -2 -9 4 6 10 25 14 25 6z m140 -2 c0 -8 -19 -13 -24 -6 -3 5 1 9 9 9 8
0 15 -2 15 -3z m-234 -26 c4 -7 3 -9 -1 -5 -5 4 -15 -3 -22 -15 -7 -13 -12
-17 -13 -10 0 7 -5 10 -12 6 -7 -4 -8 -3 -4 5 4 6 11 9 16 6 4 -3 10 2 14 10
7 18 13 19 22 3z m42 -12 c-16 -31 -21 -34 -13 -7 5 18 4 22 -5 16 -8 -5 -11
-4 -7 2 3 5 13 10 21 10 12 0 13 -5 4 -21z m67 -14 c-3 -3 -11 0 -18 7 -9 10
-8 11 6 5 10 -3 15 -9 12 -12z m-179 -32 c0 -16 -4 -30 -8 -30 -4 0 -6 10 -4
23 3 12 5 25 5 30 1 4 3 7 5 7 2 0 3 -13 2 -30z m-41 0 c13 -6 15 -9 5 -9 -8
0 -22 4 -30 9 -18 12 -2 12 25 0z m115 0 c-18 -12 -30 -13 -30 -2 0 4 10 9 22
9 18 2 20 0 8 -7z m21 -13 c-10 -9 -11 -8 -5 6 3 10 9 15 12 12 3 -3 0 -11 -7
-18z m119 18 c0 -2 -6 -8 -13 -14 -10 -8 -14 -7 -14 2 0 8 6 14 14 14 7 0 13
-1 13 -2z m-50 -30 c-6 -8 -8 -20 -4 -27 5 -10 4 -10 -6 -1 -11 10 -11 15 0
28 7 8 15 15 17 15 3 0 0 -7 -7 -15z m-123 -1 c-3 -4 -2 -16 4 -28 9 -19 9
-19 -4 -4 -8 10 -17 15 -20 11 -4 -3 -7 -1 -7 5 0 5 6 13 13 15 18 8 21 8 14
1z m-79 -18 c-7 -8 -15 -12 -17 -11 -5 6 10 25 20 25 5 0 4 -6 -3 -14z m162 6
c0 -4 -14 -8 -31 -8 -17 -1 -27 1 -21 5 15 9 52 11 52 3z m77 -7 c0 -8 -4 -12
-9 -9 -5 3 -6 10 -3 15 9 13 12 11 12 -6z m116 -10 c-3 -9 -8 -14 -10 -11 -3
3 -2 9 2 15 9 16 15 13 8 -4z m-313 -5 c0 -5 -4 -10 -10 -10 -5 0 -10 5 -10
10 0 6 5 10 10 10 6 0 10 -4 10 -10z m-100 -43 c0 -5 -4 -5 -10 -2 -5 3 -10
14 -10 23 0 15 2 15 10 2 5 -8 10 -19 10 -23z m40 23 c0 -5 -4 -10 -10 -10 -5
0 -10 5 -10 10 0 6 5 10 10 10 6 0 10 -4 10 -10z m200 1 c0 -6 -4 -12 -8 -15
-5 -3 -9 1 -9 9 0 8 4 15 9 15 4 0 8 -4 8 -9z m-260 -46 c0 -5 -5 -3 -10 5 -5
8 -10 20 -10 25 0 6 5 3 10 -5 5 -8 10 -19 10 -25z m120 0 c0 -5 -5 -3 -10 5
-5 8 -10 20 -10 25 0 6 5 3 10 -5 5 -8 10 -19 10 -25z m-84 -11 c-3 -9 -11
-12 -18 -8 -8 5 -9 2 -5 -9 3 -10 2 -17 -4 -17 -6 0 -9 8 -7 18 2 9 10 16 16
15 7 -2 12 7 13 20 0 12 3 16 6 9 3 -7 2 -20 -1 -28z m44 21 c4 3 11 -2 14
-10 4 -13 2 -14 -14 -5 -11 6 -20 16 -19 23 0 9 2 9 6 -1 2 -6 8 -10 13 -7z
m162 -9 c-4 -6 -7 -14 -7 -18 0 -19 -11 -14 -11 6 0 12 6 23 13 23 6 0 9 -5 5
-11z m53 -16 c3 -5 1 -10 -4 -10 -6 0 -11 5 -11 10 0 6 2 10 4 10 3 0 8 -4 11
-10z m42 -5 c0 -8 -4 -12 -9 -9 -5 3 -6 10 -3 15 9 13 12 11 12 -6z m-224 -10
c-3 -9 -8 -14 -10 -11 -3 3 -2 9 2 15 9 16 15 13 8 -4z m-133 -10 c-10 -13 -9
-15 11 -16 13 0 18 -3 11 -6 -7 -3 -20 -2 -28 1 -13 5 -14 9 -4 21 7 8 15 15
17 15 3 0 0 -7 -7 -15z m177 0 c0 -8 -4 -12 -9 -9 -5 3 -6 10 -3 15 9 13 12
11 12 -6z m-232 -22 c3 -10 6 -20 5 -22 -1 -2 4 -8 12 -12 9 -6 9 -9 1 -9 -11
0 -26 16 -29 33 -1 4 -2 10 -3 15 -1 4 -6 0 -11 -8 -5 -8 -10 -10 -10 -4 0 27
25 32 35 7z m144 -5 c-12 -23 -21 -24 -12 -1 5 12 3 14 -7 8 -8 -5 -11 -4 -7
2 3 5 13 10 21 10 11 0 13 -5 5 -19z m131 16 c0 -8 -19 -13 -24 -6 -3 5 1 9 9
9 8 0 15 -2 15 -3z m96 -6 c3 -4 -1 -5 -10 -4 -8 1 -18 5 -22 8 -3 4 1 5 10 4
8 -1 18 -5 22 -8z m154 8 c0 -2 -8 -10 -17 -17 -16 -13 -17 -12 -4 4 13 16 21
21 21 13z m-492 -31 c-3 -3 -9 2 -12 12 -6 14 -5 15 5 6 7 -7 10 -15 7 -18z
m217 -3 c-3 -3 -11 0 -18 7 -9 10 -8 11 6 5 10 -3 15 -9 12 -12z m-188 -6
c-10 -8 -18 -18 -17 -22 1 -5 -4 -10 -12 -12 -9 -2 -8 0 2 7 8 6 11 11 5 11
-5 0 -1 7 9 15 11 8 22 15 25 15 3 0 -2 -7 -12 -14z m49 5 c-4 -5 -1 -11 6
-13 7 -3 5 -7 -6 -11 -11 -5 -15 -3 -10 5 5 8 1 9 -12 5 -18 -7 -18 -7 0 8 23
17 30 19 22 6z m-98 -35 c-2 -1 -12 -8 -22 -16 -13 -10 -17 -10 -12 -2 4 7 2
12 -6 12 -10 0 -10 2 1 9 8 5 20 7 28 4 8 -3 13 -6 11 -7z m182 10 c0 -3 -4
-8 -10 -11 -5 -3 -10 -1 -10 4 0 6 5 11 10 11 6 0 10 -2 10 -4z m39 1 c-2 -1
-13 -9 -24 -17 -19 -14 -19 -14 -6 3 7 9 18 17 24 17 6 0 8 -1 6 -3z m161 -1
c0 -3 -4 -8 -10 -11 -5 -3 -10 -1 -10 4 0 6 5 11 10 11 6 0 10 -2 10 -4z
m-323 -21 c0 -8 -4 -15 -9 -15 -10 0 -11 14 -1 23 9 10 10 9 10 -8z m84 -2
c13 -16 12 -17 -3 -4 -17 13 -22 21 -14 21 2 0 10 -8 17 -17z m-46 -13 c-10
-11 -21 -18 -23 -15 -3 3 3 12 14 20 27 20 30 18 9 -5z m225 10 c0 -5 -2 -10
-4 -10 -3 0 -8 5 -11 10 -3 6 -1 10 4 10 6 0 11 -4 11 -10z m-330 -20 c0 -5
-5 -10 -11 -10 -5 0 -7 5 -4 10 3 6 8 10 11 10 2 0 4 -4 4 -10z m74 -16 c3 -8
2 -12 -4 -9 -6 3 -10 10 -10 16 0 14 7 11 14 -7z m-44 -4 c0 -5 -4 -10 -10
-10 -5 0 -10 5 -10 10 0 6 5 10 10 10 6 0 10 -4 10 -10z m146 -22 c12 -14 13
-18 3 -10 -9 6 -18 10 -21 7 -2 -3 -5 2 -5 10 0 19 0 19 23 -7z m-122 3 c3 -5
-1 -11 -9 -14 -9 -4 -12 -1 -8 9 6 16 10 17 17 5z m76 -37 c0 -8 -19 -13 -24
-6 -3 5 1 9 9 9 8 0 15 -2 15 -3z m254 -10 c3 -8 2 -12 -4 -9 -6 3 -10 10 -10
16 0 14 7 11 14 -7z m-134 -14 c0 -5 -2 -10 -4 -10 -3 0 -8 5 -11 10 -3 6 -1
10 4 10 6 0 11 -4 11 -10z"/>
<path d="M2113 3540 c-39 -9 -28 -1 -213 -159 -80 -68 -170 -145 -200 -171
-30 -26 -98 -84 -150 -129 -52 -45 -107 -88 -122 -96 -50 -27 -107 -25 -193 7
-44 16 -120 44 -170 63 -49 18 -186 69 -304 114 -117 45 -229 81 -247 81 -23
0 -44 -9 -66 -29 -46 -41 -44 -90 6 -196 21 -44 55 -118 76 -165 21 -47 49
-110 63 -140 137 -303 150 -336 150 -385 1 -33 -6 -60 -18 -80 -17 -26 -197
-262 -239 -312 -46 -55 -277 -356 -286 -372 -42 -79 39 -169 136 -152 22 4 72
9 110 10 70 3 129 8 129 11 0 0 32 3 70 5 39 2 104 7 145 11 83 8 98 9 249 17
113 7 158 -6 192 -55 9 -13 110 -162 224 -333 115 -171 216 -320 224 -332 39
-55 118 -63 165 -17 20 21 48 105 71 214 2 8 11 44 20 80 9 36 19 76 22 89 2
14 7 29 11 35 3 6 7 17 8 26 1 8 5 26 8 40 4 14 9 38 12 54 2 16 7 32 9 36 2
3 6 18 9 33 2 14 14 60 25 102 12 41 21 83 21 93 0 40 50 118 89 140 22 13 43
22 48 21 4 -1 15 0 23 3 17 7 91 26 130 34 14 3 36 7 49 10 14 3 29 8 35 11 6
4 19 8 31 9 35 4 50 9 57 19 5 6 8 5 8 -2 0 -7 5 -13 11 -13 5 0 7 5 4 10 -5
9 21 14 63 13 6 -1 12 2 12 6 0 4 6 8 13 8 6 0 20 4 30 8 15 6 16 4 7 -21 -13
-32 -3 -27 14 8 9 19 34 29 134 55 68 17 134 39 148 48 46 30 57 98 24 144
-15 22 -203 142 -382 246 -103 59 -333 203 -349 218 -53 49 -54 70 -33 562 15
363 15 378 -6 412 -25 42 -66 62 -107 53z"/>
<path d="M2715 1800 c-8 -13 4 -32 16 -25 5 4 9 -4 9 -16 0 -21 -1 -21 -18 -6
-10 10 -23 17 -28 17 -8 0 36 -34 45 -35 3 0 8 12 12 27 6 23 4 26 -13 23 -14
-3 -18 0 -14 10 6 17 0 20 -9 5z"/>
<path d="M2758 1742 l-17 -37 19 24 c11 13 20 29 20 37 0 21 -3 17 -22 -24z"/>
<path d="M2590 1760 c0 -5 5 -10 10 -10 6 0 10 5 10 10 0 6 -4 10 -10 10 -5 0
-10 -4 -10 -10z"/>
<path d="M2682 1747 c10 -8 15 -17 12 -20 -3 -3 4 -10 15 -17 14 -7 21 -7 21
0 0 5 -7 10 -16 10 -8 0 -13 4 -9 9 3 6 -5 15 -17 21 -21 10 -21 10 -6 -3z"/>
<path d="M2628 1731 c4 -10 1 -12 -8 -6 -8 5 -11 4 -6 -3 4 -6 13 -9 21 -6 8
4 13 10 10 14 -3 5 1 10 7 13 7 3 3 4 -8 4 -15 -1 -20 -6 -16 -16z"/>
<path d="M2810 1740 c0 -5 -5 -10 -11 -10 -6 0 -22 -9 -36 -20 -33 -26 -23
-26 21 1 31 18 47 39 31 39 -3 0 -5 -4 -5 -10z"/>
<path d="M2585 1720 c10 -11 20 -20 23 -20 3 0 -3 9 -13 20 -10 11 -20 20 -23
20 -3 0 3 -9 13 -20z"/>
<path d="M2518 1718 c-9 -5 -6 -7 9 -5 12 2 25 6 28 8 8 9 -23 6 -37 -3z"/>
<path d="M2671 1713 c7 -12 15 -20 18 -17 3 2 -3 12 -13 22 -17 16 -18 16 -5
-5z"/>
<path d="M2830 1723 c0 -4 11 -13 25 -20 14 -6 23 -7 19 -2 -8 13 -44 31 -44
22z"/>
<path d="M2375 1700 c-3 -5 -1 -10 4 -10 6 0 11 5 11 10 0 6 -2 10 -4 10 -3 0
-8 -4 -11 -10z"/>
<path d="M2657 1694 c5 -12 3 -15 -6 -9 -10 6 -11 3 -2 -12 10 -20 52 -27 50
-8 0 5 8 13 18 17 16 7 16 8 -2 5 -11 -2 -19 -8 -18 -14 2 -7 -6 -11 -17 -10
-14 1 -18 6 -15 18 3 10 1 20 -4 24 -7 4 -8 -1 -4 -11z"/>
<path d="M2787 1696 c-18 -14 -17 -14 2 -21 12 -3 21 -11 21 -16 0 -6 -4 -7
-10 -4 -15 9 -5 -51 14 -80 9 -14 13 -25 9 -25 -11 0 -40 20 -30 20 4 0 0 11
-9 25 -8 13 -12 30 -8 37 4 7 4 10 -1 6 -5 -5 -14 1 -22 12 -8 11 -19 20 -25
20 -7 0 -2 -9 10 -20 24 -23 29 -41 10 -36 -7 1 -10 1 -5 -1 4 -3 5 -9 1 -14
-3 -5 -1 -9 5 -9 5 0 11 5 13 10 2 6 8 2 15 -9 10 -17 8 -18 -25 -19 -71 -2
-88 -4 -69 -9 9 -2 15 -9 12 -14 -4 -5 -2 -9 4 -9 5 0 11 6 14 13 2 6 8 9 12
5 14 -13 -14 -35 -40 -32 -14 1 -23 -2 -19 -7 12 -20 13 -50 1 -46 -7 2 -11
13 -9 23 2 18 2 18 -8 1 -6 -9 -16 -15 -22 -11 -6 4 -5 10 3 15 8 5 9 9 3 9
-6 0 -18 -8 -25 -17 -10 -11 -10 -14 -1 -9 6 4 12 2 12 -4 0 -6 7 -10 16 -8
10 2 19 -3 21 -10 3 -6 -1 -10 -9 -9 -7 2 -10 2 -5 0 4 -3 7 -9 7 -14 0 -6 -4
-7 -10 -4 -6 3 -7 -1 -4 -10 4 -10 1 -14 -7 -12 -8 2 -11 2 -6 0 4 -3 7 -9 7
-13 0 -11 -41 -9 -57 2 -16 13 -26 -8 -13 -29 9 -15 10 -14 4 7 -6 20 -4 23 7
13 14 -11 94 -11 106 1 8 7 33 -13 33 -26 0 -6 -6 -6 -14 1 -11 9 -18 8 -30
-4 -9 -9 -16 -21 -16 -26 0 -5 -6 -9 -14 -9 -8 0 -16 -5 -18 -12 -2 -6 -12 4
-21 23 -9 19 -17 28 -17 21 0 -7 7 -24 16 -38 9 -13 14 -27 11 -30 -3 -3 -14
7 -24 23 -30 47 -47 63 -65 63 -10 0 -17 5 -16 11 2 6 -4 14 -12 16 -12 4 -12
3 -2 -5 8 -5 13 -13 12 -18 -1 -5 9 -12 22 -16 13 -3 19 -6 14 -7 -4 -1 2 -10
15 -20 13 -11 20 -23 16 -27 -4 -5 -13 -2 -18 6 -9 12 -10 12 -5 -3 3 -10 6
-21 6 -24 0 -3 6 0 13 6 11 8 14 4 14 -20 0 -29 -1 -30 -14 -13 -12 16 -13 15
-9 -14 4 -39 -3 -47 -20 -24 -12 16 -14 16 -35 -5 l-22 -22 -20 22 -19 22 16
-27 c15 -26 15 -28 -4 -40 -19 -12 -19 -13 2 -35 26 -28 10 -30 -22 -3 -18 16
-26 17 -37 8 -12 -10 -14 -8 -11 8 1 10 8 23 13 27 6 5 4 7 -4 5 -16 -5 -25
-44 -12 -53 5 -3 13 -1 16 5 5 8 11 7 21 -1 14 -12 10 -29 -7 -29 -6 0 -7 6
-3 13 4 6 -2 3 -14 -7 -12 -11 -22 -26 -21 -35 0 -12 3 -11 9 4 5 11 9 16 9
11 1 -4 12 -1 26 8 32 21 38 20 23 -4 -11 -17 -10 -22 1 -29 7 -5 22 -6 32 -4
22 6 52 -15 43 -29 -4 -6 -10 -4 -16 6 -7 12 -14 14 -26 7 -11 -6 -24 -5 -36
1 -13 7 -21 7 -29 -2 -9 -8 -7 -9 8 -4 18 7 18 6 7 -9 -8 -9 -23 -19 -33 -22
-16 -5 -18 -10 -8 -21 13 -16 1 -18 -21 -4 -13 9 -11 13 9 30 22 19 23 22 7
38 -9 9 -23 26 -31 37 -8 11 -15 15 -15 9 0 -6 11 -23 24 -37 24 -26 24 -26 4
-44 -19 -17 -20 -17 -34 2 -8 10 -14 15 -14 11 0 -14 47 -65 54 -59 3 4 6 -1
6 -9 0 -22 -24 -39 -46 -32 -14 4 -15 3 -5 -4 8 -6 9 -12 3 -16 -13 -8 -34 19
-36 44 0 11 -5 20 -11 20 -5 -1 -13 9 -17 22 -7 22 -7 22 -5 -2 1 -14 8 -24
15 -22 7 1 12 -3 11 -10 -4 -21 11 -56 26 -62 8 -3 15 -10 15 -16 0 -16 -37
11 -48 34 -8 19 -9 19 -16 1 -4 -11 -4 -17 -1 -13 3 3 18 -5 32 -18 14 -13 30
-22 35 -21 6 1 13 -4 15 -11 3 -8 -1 -10 -11 -6 -9 3 -16 1 -16 -6 0 -6 5 -8
10 -5 6 3 10 2 10 -4 0 -5 -3 -11 -7 -14 -5 -2 -2 -2 5 -1 6 2 12 -2 12 -8 0
-6 6 -6 16 3 13 11 15 10 12 -3 -3 -16 73 -80 101 -84 8 -2 18 -9 22 -16 5 -7
9 -8 9 -3 0 6 5 2 11 -7 6 -11 16 -15 26 -11 10 4 14 2 9 -5 -3 -6 -1 -14 5
-18 8 -4 9 -3 5 4 -13 22 5 12 30 -15 l25 -28 -16 33 c-12 25 -13 37 -5 47 9
11 7 16 -9 24 -27 15 -39 14 -18 -2 11 -8 14 -17 8 -26 -8 -13 -12 -13 -27 0
-9 8 -19 13 -21 11 -5 -4 -35 14 -34 21 3 20 0 28 -8 23 -5 -3 -15 2 -22 11
-10 11 -10 14 -2 9 9 -5 11 -2 7 11 -5 15 -4 16 5 3 9 -13 11 -13 11 0 0 13 1
13 10 0 9 -13 10 -13 11 0 1 8 1 18 0 22 0 4 7 5 17 1 14 -5 13 -3 -3 11 -11
10 -14 14 -6 10 10 -5 12 -3 7 7 -6 10 -4 10 6 -1 7 -8 19 -16 26 -18 10 -2
10 2 1 19 -7 15 -8 19 0 15 7 -5 8 -1 4 10 -4 12 -2 15 8 12 8 -3 12 -13 11
-23 -3 -17 -2 -17 13 -5 16 13 16 15 -1 27 -10 7 -24 11 -32 8 -7 -3 -10 0 -7
6 4 6 14 8 24 5 13 -5 13 -4 -2 8 -15 12 -15 14 -3 19 9 4 18 2 21 -4 7 -10
25 -3 25 11 0 5 -14 7 -32 5 -29 -4 -30 -3 -12 9 14 11 21 11 27 3 6 -7 7 -4
3 8 -5 17 -4 18 6 5 12 -14 15 -14 30 1 14 15 14 18 2 23 -10 4 -12 2 -8 -6 4
-6 3 -8 -4 -5 -9 6 -9 16 -2 47 0 3 10 -6 20 -19 11 -13 20 -20 20 -15 0 4 -7
15 -16 25 -15 16 -14 20 5 40 l21 23 -27 28 c-21 22 -24 31 -15 40 9 9 15 9
25 -1 10 -10 9 -11 -5 -6 -26 10 -22 -8 7 -35 30 -29 46 -19 19 12 -19 22 -19
22 0 8 11 -8 17 -10 13 -3 -4 6 -2 15 4 18 5 4 8 13 5 21 -3 8 0 13 7 11 7 -1
11 8 11 21 -1 19 1 21 15 10 11 -9 10 -5 -3 9 -10 13 -22 20 -26 18 -4 -3 -11
2 -14 11 -7 18 6 12 44 -20 l25 -21 -22 26 c-18 20 -20 28 -11 37 10 10 10 15
-1 21 -8 5 -9 11 -3 15 14 8 25 -25 12 -38 -11 -11 15 -46 33 -46 6 0 2 7 -9
16 -10 8 -13 12 -5 8 10 -5 12 -3 6 7 -8 12 -15 49 -9 49 1 0 10 -12 20 -27
17 -27 17 -28 -1 -13 -17 14 -17 14 -4 -7 9 -15 17 -19 23 -13 7 7 6 14 -2 22
-7 7 -12 16 -12 20 0 4 9 -1 20 -12 24 -24 39 -26 36 -4 -1 9 -20 29 -41 45
-21 16 -35 29 -30 29 5 0 18 -8 29 -17 21 -18 21 -18 5 2 -9 11 -14 26 -12 33
4 10 9 8 20 -5 8 -10 11 -11 7 -3 -6 12 -5 13 7 5 8 -5 6 -2 -4 8 -11 9 -15
17 -10 17 5 0 15 -6 23 -12 11 -10 11 -9 0 6 -12 16 -13 18 -1 11 9 -5 12 -4
8 2 -3 5 0 10 8 10 8 0 11 -5 8 -11 -5 -9 8 0 47 33 3 2 -3 1 -12 -2 -10 -3
-22 1 -30 11 -11 15 -11 16 2 7 9 -5 7 -2 -3 8 -11 9 -16 17 -11 17 4 0 16 -7
26 -17 25 -23 35 -8 12 19 -19 22 -19 22 0 8 16 -12 18 -12 11 -1 -6 10 -4 12
6 6 11 -7 11 -5 -1 11 -14 18 -14 18 5 3 34 -27 45 -32 39 -15 -3 9 -10 14
-14 11 -4 -2 -16 5 -26 18 -19 22 -19 22 1 7 17 -12 16 -10 -2 7 -18 17 -19
22 -7 27 8 3 13 2 10 -2 -3 -5 2 -9 10 -9 10 0 11 4 4 11 -5 5 -10 14 -10 20
0 5 6 1 14 -9 8 -11 12 -24 9 -29 -4 -5 -1 -6 6 -2 6 4 9 12 6 17 -4 5 -1 9 4
9 6 0 11 -5 11 -11 0 -5 5 -7 11 -3 6 3 7 9 3 13 -13 9 -16 39 -5 45 5 3 12
-1 15 -10 3 -8 2 -12 -4 -9 -6 3 -7 -1 -3 -10 4 -13 8 -14 14 -4 4 7 6 16 3
20 -2 4 0 10 5 14 12 7 34 -30 37 -63 2 -13 7 -29 12 -35 15 -21 8 -42 -13
-39 -14 3 -17 1 -9 -10 6 -7 9 -23 8 -35 -1 -15 4 -23 14 -23 12 0 13 3 4 12
-13 13 0 43 32 70 12 9 16 17 9 18 -6 0 -13 -3 -16 -7 -2 -5 -2 -3 -1 4 2 6
-4 14 -11 17 -9 3 -12 12 -8 22 4 12 3 15 -5 10 -7 -4 -12 -2 -12 3 0 6 4 11
8 11 4 0 8 9 9 20 2 18 -2 21 -22 20 -3 -1 -22 15 -42 34 -34 32 -38 33 -59
20 -19 -13 -22 -13 -27 0 -6 15 1 26 15 26 5 0 6 -5 2 -12 -5 -7 -3 -8 6 -3
18 11 -16 36 -37 28 -12 -5 -12 -7 -1 -14 7 -5 11 -9 8 -10 -12 -2 -36 -7 -49
-10 -7 -2 -16 2 -18 9 -3 7 1 10 10 6 20 -7 33 14 18 29 -9 9 -15 8 -22 -5 -5
-10 -16 -15 -24 -12 -8 4 -12 10 -9 15 3 5 10 7 15 4 5 -4 9 -1 9 4 0 15 -11
13 -33 -3z m63 -16 c0 -5 -5 -10 -11 -10 -5 0 -7 5 -4 10 3 6 8 10 11 10 2 0
4 -4 4 -10z m-2 -46 c6 -1 12 3 12 9 0 7 5 5 10 -3 13 -21 12 -27 -5 -27 -8 0
-15 5 -15 11 -1 6 -9 1 -19 -11 -17 -20 -19 -21 -23 -5 -7 24 2 43 15 35 7 -4
18 -8 25 -9z m56 -36 c-2 -3 0 -9 5 -13 6 -3 8 4 6 16 -3 13 2 27 13 35 20 14
28 11 43 -19 7 -12 8 -19 4 -15 -5 4 -14 3 -22 -3 -15 -13 -18 2 -3 17 7 7 6
11 -4 11 -8 0 -12 -5 -9 -10 3 -6 1 -7 -5 -3 -14 8 -5 -20 12 -43 8 -11 8 -13
-1 -7 -8 4 -13 2 -13 -6 0 -8 -5 -5 -11 5 -10 18 -12 18 -32 -4 -12 -13 -20
-28 -19 -34 11 -31 10 -44 -4 -38 -19 7 -18 -6 4 -31 l17 -21 -23 19 c-32 28
-49 8 -22 -27 20 -26 20 -26 1 -22 -12 2 -33 -8 -52 -26 -33 -30 -45 -37 -33
-17 4 6 3 8 -4 5 -5 -4 -9 -15 -7 -25 2 -9 4 -20 4 -24 1 -5 4 -7 9 -6 12 5
56 -31 48 -39 -4 -4 -11 -1 -16 7 -5 8 -13 15 -17 15 -4 1 -17 6 -29 12 -26
15 -50 -2 -33 -24 8 -9 8 -13 0 -14 -6 -1 -16 -2 -23 -3 -6 0 -12 -9 -14 -18
-2 -16 6 -22 27 -20 3 0 5 -10 5 -22 0 -25 -26 -30 -34 -6 -3 9 1 11 14 7 12
-4 8 1 -8 14 -32 24 -33 27 -12 54 13 17 16 18 24 5 7 -12 9 -10 8 7 -2 14 -7
19 -18 15 -13 -5 -13 -4 -1 12 11 13 16 14 22 4 7 -10 9 -10 9 1 0 7 6 11 14
8 10 -4 13 -1 9 9 -6 15 -23 20 -23 6 0 -5 -7 -9 -15 -9 -8 0 -15 5 -15 11 0
6 -4 4 -9 -4 -6 -8 -7 -18 -5 -22 5 -8 -11 -12 -30 -9 -5 1 -4 -4 3 -13 8 -10
9 -16 1 -21 -5 -3 -10 -1 -10 6 0 10 -3 10 -12 1 -15 -15 -38 -16 -38 -2 0 6
6 10 13 8 8 -2 32 17 54 40 24 25 44 39 47 33 4 -5 13 -7 22 -4 13 5 12 9 -7
29 -16 17 -26 21 -39 14 -25 -14 -31 -1 -14 31 18 36 47 52 62 37 15 -15 15
-38 1 -38 -5 0 -8 4 -4 9 11 19 -18 24 -32 6 -17 -24 -17 -32 1 -32 8 0 11 8
8 19 -2 10 1 18 7 18 7 0 10 -4 6 -9 -3 -6 3 -14 12 -20 10 -6 12 -11 6 -11
-7 0 -13 -4 -13 -10 0 -5 6 -9 13 -7 6 1 11 -3 10 -10 -2 -6 6 -11 17 -10 25
2 26 13 2 19 -10 3 -19 12 -19 21 0 9 8 15 19 14 20 -1 25 -17 6 -17 -9 0 -8
-3 2 -9 18 -12 33 -4 23 12 -5 9 -2 8 8 0 13 -10 16 -10 16 2 0 8 -3 12 -7 10
-3 -2 -6 5 -6 15 0 10 4 16 8 14 7 -5 12 11 9 29 -1 4 7 7 16 5 10 -2 18 3 19
10 1 6 2 13 4 15 1 1 3 10 5 19 2 11 -2 15 -12 11 -11 -4 -11 -8 -3 -13 9 -5
9 -9 1 -14 -6 -4 -11 -2 -11 5 0 10 -3 10 -12 1 -7 -7 -17 -12 -23 -12 -5 0 3
11 19 23 18 15 25 26 19 30 -13 8 -5 47 8 47 5 0 7 -11 5 -25 -3 -14 -1 -23 5
-20 5 4 9 1 9 -5 0 -6 5 -8 11 -5 6 5 5 11 -5 18 -15 12 -9 37 10 40 5 1 8 11
7 22 -2 17 0 16 11 -5 8 -14 12 -28 10 -32z m-110 -45 c11 -6 11 -10 1 -20 -9
-8 -19 -5 -41 13 l-29 24 27 -4 c15 -3 34 -8 42 -13z m-34 -23 c8 -5 11 -12 7
-17 -5 -4 -13 -1 -18 7 -9 13 -10 12 -6 -2 4 -12 0 -16 -14 -15 -22 1 -24 8
-7 25 14 14 18 15 38 2z m-64 -19 c-7 -11 13 -19 39 -15 66 11 96 11 101 2 4
-6 2 -8 -4 -5 -5 4 -18 4 -27 1 -12 -5 -13 -9 -5 -14 8 -5 5 -9 -8 -12 -16 -4
-20 -1 -17 13 3 12 -1 16 -12 12 -10 -4 -11 -8 -3 -13 8 -5 6 -9 -6 -14 -9 -4
-24 0 -33 7 -9 8 -21 13 -26 11 -6 -3 -11 5 -12 16 -1 11 3 20 8 20 6 0 8 -4
5 -9z m78 -57 c9 -3 16 -10 16 -15 0 -7 -18 -7 -48 0 -4 1 8 21 13 21 2 0 10
-3 19 -6z m-124 -189 c-10 -12 -10 -18 1 -31 7 -9 13 -25 14 -36 1 -11 8 -23
15 -28 7 -4 9 -13 5 -19 -5 -9 -10 -9 -21 0 -7 6 -11 16 -8 21 4 6 -3 5 -14
-1 -34 -18 -36 -32 -9 -59 l25 -25 -31 -39 c-28 -35 -30 -41 -18 -61 10 -16
10 -19 1 -10 -18 16 -70 -22 -65 -48 2 -10 0 -21 -4 -24 -5 -2 -7 -16 -5 -30
2 -20 -1 -24 -10 -15 -16 13 -35 -7 -31 -32 2 -11 -3 -15 -16 -13 -11 2 -23
-4 -29 -15 -8 -15 -5 -23 17 -39 23 -19 24 -21 6 -18 -27 4 -54 27 -47 39 3 5
-2 8 -12 6 -11 -2 -20 4 -22 15 -2 9 2 17 8 17 7 0 9 -7 6 -16 -5 -14 -4 -15
9 -4 12 10 15 10 15 0 0 -8 3 -11 6 -8 3 4 -1 19 -10 36 -14 28 -13 42 5 42 4
0 6 -9 4 -20 -2 -11 1 -20 7 -20 5 0 7 8 4 18 -4 11 1 8 15 -8 11 -14 18 -19
14 -11 -4 7 -1 18 6 23 11 8 10 9 -3 4 -10 -3 -20 0 -24 6 -5 7 -2 8 6 3 9 -5
11 -4 6 3 -5 8 -2 10 8 6 9 -3 16 -1 16 6 0 6 -4 9 -8 6 -4 -2 -14 -1 -21 3
-9 6 -10 11 -2 15 5 4 19 -2 31 -14 21 -21 28 -13 8 9 -7 8 -8 11 -3 8 6 -3
11 7 11 24 1 16 -2 26 -7 23 -5 -3 -9 -1 -9 5 0 5 9 9 20 8 22 -1 25 -8 10
-23 -7 -7 -6 -11 5 -11 8 0 13 2 10 5 -9 10 16 42 28 35 7 -4 5 2 -3 12 -12
15 -12 17 -1 10 10 -6 12 -4 6 6 -7 12 -6 12 7 1 14 -11 16 -11 14 0 -1 7 -5
18 -9 25 -4 6 4 20 20 32 16 12 20 18 11 15 -11 -4 -18 -1 -18 6 0 6 4 9 9 5
5 -3 13 0 17 6 5 8 3 9 -6 4 -9 -6 -11 -4 -5 5 5 8 4 11 -2 7 -5 -3 -10 0 -10
8 0 8 5 11 10 8 6 -3 7 -1 3 5 -4 6 -14 8 -24 5 -15 -6 -15 -5 -3 10 7 9 17
15 21 12 5 -3 12 0 16 6 4 8 3 9 -4 5 -8 -5 -10 -2 -6 8 3 9 9 15 12 14 20 -2
28 4 29 25 2 21 1 21 -12 -3 -8 -14 -14 -22 -15 -18 0 3 -3 15 -6 25 -4 13 -3
14 4 5 8 -11 10 -11 15 1 4 10 0 14 -11 12 -9 -1 -21 3 -25 9 -5 6 -5 1 -2
-12 4 -12 3 -22 -2 -21 -20 3 -34 -2 -28 -11 3 -5 1 -10 -4 -10 -14 0 -14 17
-1 25 5 3 8 11 6 18 -1 7 -1 9 1 5 2 -4 13 2 24 13 11 11 27 18 34 15 8 -3 17
-1 20 4 4 6 9 10 12 10 3 0 0 -7 -7 -15z m-124 -52 c-4 -10 -4 -14 0 -10 4 4
13 -1 21 -11 12 -16 14 -16 27 1 13 17 14 16 19 -2 3 -12 -2 -26 -10 -33 -19
-16 -76 -20 -66 -5 3 5 1 7 -4 4 -6 -4 -13 0 -16 7 -4 10 1 14 14 13 10 -1 19
-6 19 -11 0 -5 3 -6 7 -3 3 4 12 2 19 -4 8 -7 14 -7 19 1 4 6 3 9 -2 8 -4 -1
-18 3 -29 10 -12 6 -24 8 -28 5 -3 -3 -6 -1 -6 7 0 10 -3 10 -14 0 -8 -6 -13
-17 -10 -24 2 -6 -4 -12 -16 -13 -27 -2 -25 3 13 42 35 37 53 45 43 18z m-26
-69 c0 -1 -3 -9 -6 -18 -8 -22 -19 -20 -21 2 -1 10 5 19 13 19 8 0 14 -1 14
-3z m70 -25 c0 -5 -4 -9 -10 -9 -5 0 -10 4 -10 9 0 5 -11 4 -25 -2 -14 -7 -25
-16 -25 -20 0 -5 5 -5 11 -1 6 3 25 -4 42 -17 18 -12 26 -16 20 -8 -10 13 -10
19 0 34 12 16 13 14 12 -14 -1 -17 -7 -37 -13 -43 -9 -9 -9 -15 1 -27 8 -9 8
-12 1 -8 -10 6 -43 -21 -36 -30 1 -1 -4 -5 -12 -7 -21 -6 -29 23 -12 48 12 19
12 24 -3 41 -18 23 -67 33 -55 12 5 -9 4 -9 -6 0 -17 15 -3 35 20 28 11 -3 22
0 27 8 14 24 73 29 73 6z m95 1 c10 -11 16 -20 13 -20 -3 0 -13 9 -23 20 -10
11 -16 20 -13 20 3 0 13 -9 23 -20z m-110 -20 c3 -6 -1 -7 -9 -4 -18 7 -21 14
-7 14 6 0 13 -4 16 -10z m-61 -89 c2 -21 -1 -34 -10 -38 -11 -4 -10 -9 2 -28
15 -23 5 -43 -15 -30 -5 3 -12 1 -16 -5 -4 -6 -10 -8 -14 -5 -5 2 -13 -7 -20
-21 -6 -14 -16 -22 -21 -19 -6 3 -10 1 -10 -6 0 -7 -2 -10 -5 -7 -3 3 -2 13 1
22 5 12 9 14 14 6 5 -8 9 -7 13 5 4 9 3 13 -3 10 -13 -8 -13 5 0 25 9 13 10
13 10 0 0 -13 1 -13 10 0 9 13 10 13 10 0 0 -13 2 -13 9 0 6 8 7 18 5 22 -3 4
-1 8 4 8 5 0 9 6 9 14 0 8 -6 12 -15 9 -12 -5 -12 -3 -1 15 11 18 14 18 24 6
9 -13 11 -12 11 4 0 12 -6 18 -16 17 -8 -2 -19 -4 -23 -4 -5 -1 -6 -5 -3 -10
3 -5 -2 -15 -11 -22 -14 -12 -15 -11 -10 11 4 14 4 19 1 12 -3 -6 -11 -9 -16
-6 -7 4 -8 2 -4 -5 4 -6 2 -18 -4 -26 -9 -11 -9 -15 -1 -15 6 0 11 6 11 13 0
8 4 7 10 -3 16 -24 12 -29 -22 -25 -21 3 -28 1 -19 -4 8 -5 9 -11 3 -15 -11
-6 -9 -72 2 -83 3 -3 6 -1 6 5 0 16 17 15 23 -1 5 -14 -26 -17 -39 -5 -3 4
-12 4 -20 1 -8 -3 -14 0 -14 6 0 6 5 11 11 11 6 0 1 12 -10 26 l-20 25 39 39
c25 25 37 45 34 55 -4 9 0 15 9 15 8 0 17 7 21 15 4 10 14 14 31 11 14 -3 25
0 25 6 0 23 10 0 14 -31z m-49 -51 c3 -5 1 -10 -4 -10 -6 0 -11 5 -11 10 0 6
2 10 4 10 3 0 8 -4 11 -10z m-52 -55 c-3 -9 -8 -14 -10 -11 -3 3 -2 9 2 15 9
16 15 13 8 -4z m57 -25 c0 -5 -2 -10 -4 -10 -3 0 -8 5 -11 10 -3 6 -1 10 4 10
6 0 11 -4 11 -10z"/>
<path d="M2881 1596 c-8 -10 -9 -16 -1 -21 5 -3 10 -5 11 -3 4 18 7 38 4 38
-1 0 -8 -6 -14 -14z"/>
<path d="M2813 1433 c0 -11 7 -20 14 -20 10 0 10 4 1 16 -7 9 -13 18 -15 20
-1 2 -1 -5 0 -16z"/>
<path d="M2616 1110 c16 -23 11 -39 -15 -59 -13 -10 -20 -21 -14 -24 5 -3 21
9 36 28 l26 33 -22 18 c-13 11 -17 13 -11 4z"/>
<path d="M2519 928 c-6 -25 -5 -38 3 -49 8 -11 9 -11 5 2 -3 9 -1 21 5 27 6 6
6 12 -1 16 -6 4 -11 6 -12 4z"/>
<path d="M2430 776 c0 -2 8 -10 18 -17 15 -13 16 -12 3 4 -13 16 -21 21 -21
13z"/>
<path d="M2511 1083 c-1 -7 8 -18 18 -25 18 -11 18 -13 3 -25 -15 -12 -15 -13
3 -7 18 5 18 4 -2 -14 -20 -18 -21 -21 -6 -27 10 -3 14 -3 10 1 -4 4 0 16 10
26 9 10 13 18 8 18 -4 0 -1 8 6 17 8 9 9 14 3 10 -7 -4 -15 0 -18 9 -3 8 -10
13 -15 10 -5 -4 -12 0 -14 6 -4 10 -6 10 -6 1z"/>
<path d="M2350 916 c-9 -11 -9 -19 0 -33 11 -17 11 -17 6 1 -4 10 -1 25 5 32
6 8 9 14 6 14 -2 0 -10 -7 -17 -14z"/>
<path d="M2535 1689 c-4 -6 -5 -12 -2 -15 2 -3 7 2 10 11 7 17 1 20 -8 4z"/>
<path d="M2570 1690 c-9 -6 -10 -10 -3 -10 6 0 15 5 18 10 8 12 4 12 -15 0z"/>
<path d="M2750 1676 c0 -2 7 -9 15 -16 9 -7 15 -8 15 -2 0 5 -7 12 -15 16 -8
3 -15 4 -15 2z"/>
<path d="M2479 1653 c-13 -16 -12 -17 4 -4 9 7 17 15 17 17 0 8 -8 3 -21 -13z"/>
<path d="M2596 1653 c-6 -14 -5 -15 5 -6 7 7 10 15 7 18 -3 3 -9 -2 -12 -12z"/>
<path d="M2415 1649 c-4 -6 -5 -12 -2 -15 2 -3 7 2 10 11 7 17 1 20 -8 4z"/>
<path d="M2533 1645 c0 -8 5 -11 10 -8 6 4 8 0 4 -10 -4 -11 -2 -14 9 -10 13
5 13 8 -2 24 -21 23 -21 23 -21 4z"/>
<path d="M2155 1640 c-3 -5 -1 -10 4 -10 6 0 11 5 11 10 0 6 -2 10 -4 10 -3 0
-8 -4 -11 -10z"/>
<path d="M2624 1636 c-3 -8 -13 -12 -25 -9 -10 3 -19 3 -19 0 0 -15 40 -12 54
4 9 11 11 19 6 19 -6 0 -13 -6 -16 -14z"/>
<path d="M2710 1640 c0 -6 7 -10 15 -10 8 0 15 2 15 4 0 2 -7 6 -15 10 -8 3
-15 1 -15 -4z"/>
<path d="M2678 1627 c12 -7 19 -17 15 -22 -4 -4 -2 -5 5 -1 6 4 12 2 12 -3 0
-6 -5 -11 -12 -11 -6 0 -9 -3 -5 -6 3 -3 13 -2 22 4 15 8 14 11 -10 30 -15 12
-33 22 -39 22 -6 -1 -1 -6 12 -13z"/>
<path d="M2636 1613 c-6 -14 -5 -15 5 -6 7 7 10 15 7 18 -3 3 -9 -2 -12 -12z"/>
<path d="M2570 1606 c0 -2 7 -7 16 -10 8 -3 12 -2 9 4 -6 10 -25 14 -25 6z"/>
<path d="M2654 1598 c-4 -6 -3 -8 4 -4 5 3 13 0 15 -6 3 -8 6 -6 6 5 1 19 -14
23 -25 5z"/>
<path d="M2556 1587 c3 -10 9 -15 12 -12 3 3 0 11 -7 18 -10 9 -11 8 -5 -6z"/>
<path d="M2614 1589 c1 -7 13 -14 27 -16 18 -2 20 -1 9 6 -8 5 -17 8 -21 5 -4
-2 -10 1 -12 6 -3 6 -4 5 -3 -1z"/>
<path d="M2466 1578 c3 -5 10 -6 15 -3 13 9 11 12 -6 12 -8 0 -12 -4 -9 -9z"/>
<path d="M2510 1575 c5 -7 6 -16 2 -20 -4 -5 -2 -5 5 -2 6 4 14 1 17 -5 3 -7
3 -2 0 11 -5 18 -3 22 7 16 8 -5 11 -4 6 0 -4 5 -16 9 -27 10 -14 1 -17 -2
-10 -10z"/>
<path d="M2576 1565 c-3 -8 -1 -15 4 -15 6 0 10 7 10 15 0 8 -2 15 -4 15 -2 0
-6 -7 -10 -15z"/>
<path d="M2977 1544 c-10 -13 -22 -22 -27 -19 -5 3 -12 1 -15 -5 -5 -8 -12 -7
-23 1 -10 6 -3 -1 13 -16 17 -16 29 -30 28 -32 -8 -10 -1 -19 16 -20 11 -1 18
4 17 12 -3 18 -16 32 -16 17 0 -7 -4 -12 -9 -12 -5 0 -8 8 -6 18 2 9 4 22 5
27 0 6 5 2 11 -8 16 -27 48 -5 45 30 -4 36 -17 38 -39 7z m20 -2 c-10 -10 -14
-22 -10 -27 5 -4 2 -5 -5 -1 -11 6 -10 12 4 27 9 10 19 19 22 19 3 0 -2 -8
-11 -18z"/>
<path d="M2393 1547 c0 -8 6 -14 14 -14 9 0 10 4 2 14 -6 7 -12 13 -14 13 -1
0 -2 -6 -2 -13z"/>
<path d="M2455 1550 c-3 -6 1 -7 9 -4 18 7 21 14 7 14 -6 0 -13 -4 -16 -10z"/>
<path d="M2630 1553 c0 -5 5 -15 10 -23 7 -12 9 -10 7 8 -1 19 -17 33 -17 15z"/>
<path d="M2295 1540 c-3 -5 -1 -10 4 -10 6 0 11 5 11 10 0 6 -2 10 -4 10 -3 0
-8 -4 -11 -10z"/>
<path d="M2550 1540 c0 -5 5 -10 11 -10 5 0 7 5 4 10 -3 6 -8 10 -11 10 -2 0
-4 -4 -4 -10z"/>
<path d="M2595 1530 c12 -5 14 -9 6 -9 -8 -1 -12 -3 -9 -6 3 -3 13 -2 22 1 14
5 15 9 4 15 -7 5 -20 8 -28 8 -10 0 -8 -3 5 -9z"/>
<path d="M3062 1527 c-9 -11 -4 -17 23 -30 33 -16 51 -7 21 10 -8 4 -15 12
-15 18 1 15 -17 17 -29 2z"/>
<path d="M2530 1520 c0 -5 5 -10 11 -10 5 0 7 5 4 10 -3 6 -8 10 -11 10 -2 0
-4 -4 -4 -10z"/>
<path d="M2514 1496 c1 -8 5 -18 8 -22 4 -3 5 1 4 10 -1 8 -5 18 -8 22 -4 3
-5 -1 -4 -10z"/>
<path d="M2550 1499 c-12 -8 -11 -9 5 -5 15 4 21 1 22 -12 1 -13 -5 -18 -19
-18 -14 1 -22 -6 -24 -21 -4 -25 11 -39 22 -22 4 7 3 9 -4 5 -7 -4 -10 1 -9
14 1 11 7 20 15 20 8 0 10 -5 6 -12 -6 -9 -3 -9 9 1 17 13 18 53 1 58 -5 1
-16 -2 -24 -8z"/>
<path d="M2451 1491 c-8 -5 -9 -11 -3 -15 5 -3 12 1 16 9 6 17 6 18 -13 6z"/>
<path d="M2485 1483 c-5 -10 -9 -28 -10 -40 -2 -19 1 -21 19 -11 30 16 34 21
9 14 -22 -7 -26 6 -9 32 4 7 6 15 3 18 -2 3 -8 -3 -12 -13z"/>
<path d="M3000 1490 c-13 -9 -13 -10 0 -10 13 0 13 -2 1 -9 -10 -7 -7 -9 11
-8 16 1 25 7 23 16 -2 19 -16 23 -35 11z"/>
<path d="M2240 1480 c-9 -6 -10 -10 -3 -10 6 0 15 5 18 10 8 12 4 12 -15 0z"/>
<path d="M2353 1453 c0 -9 4 -10 14 -2 7 6 13 12 13 14 0 1 -6 2 -13 2 -8 0
-14 -6 -14 -14z"/>
<path d="M2393 1447 c-1 -11 -1 -18 0 -16 2 2 8 11 15 20 9 12 9 16 -1 16 -7
0 -14 -9 -14 -20z"/>
<path d="M2597 1456 c-3 -8 -2 -18 4 -22 16 -9 22 2 11 21 -8 15 -10 16 -15 1z"/>
<path d="M2899 1468 c-6 -17 -4 -98 2 -98 12 0 20 16 12 24 -4 4 -8 13 -9 22
-2 11 1 12 11 4 9 -8 14 -6 19 6 5 13 9 14 21 4 12 -10 15 -9 15 5 0 10 -3 16
-6 12 -4 -3 -19 0 -35 9 -16 8 -29 13 -30 12z m31 -23 c0 -12 -19 -12 -23 0
-4 9 -1 12 9 8 7 -3 14 -7 14 -8z"/>
<path d="M2299 1433 c-13 -16 -12 -17 4 -4 14 11 20 11 35 0 15 -13 16 -12 3
4 -7 9 -17 17 -21 17 -4 0 -14 -8 -21 -17z"/>
<path d="M2415 1439 c-4 -6 -4 -13 -1 -16 3 -4 6 -1 6 6 0 7 5 9 12 5 7 -4 8
-3 4 4 -9 15 -13 15 -21 1z"/>
<path d="M2985 1441 c-7 -12 12 -24 25 -16 11 7 4 25 -10 25 -5 0 -11 -4 -15
-9z"/>
<path d="M2510 1423 c0 -6 8 -17 18 -24 16 -13 16 -13 2 6 -8 11 -16 22 -17
24 -2 2 -3 0 -3 -6z"/>
<path d="M2575 1420 c3 -5 11 -10 16 -10 6 0 7 5 4 10 -3 6 -11 10 -16 10 -6
0 -7 -4 -4 -10z"/>
<path d="M2944 1422 c7 -11 -6 -17 -28 -13 -5 1 -4 -4 2 -12 10 -11 9 -17 -2
-27 -16 -12 -40 -5 -31 10 10 16 -12 20 -25 5 -7 -8 -16 -13 -19 -10 -4 2 -8
-2 -8 -10 0 -16 12 -20 20 -7 2 4 3 2 1 -5 -5 -20 9 -23 23 -5 8 9 12 11 8 5
-4 -9 0 -11 12 -7 10 3 7 -2 -7 -10 -14 -8 -19 -15 -12 -16 8 0 10 -5 5 -12
-13 -22 -12 -37 5 -50 13 -11 15 -10 9 5 -11 29 2 19 18 -15 14 -29 14 -31 0
-14 -8 11 -15 14 -15 8 0 -7 -7 -12 -16 -12 -8 0 -13 -4 -9 -10 3 -5 12 -7 19
-4 8 3 17 0 22 -7 5 -8 3 -10 -6 -4 -8 5 -18 1 -27 -10 -10 -14 -13 -15 -14
-4 -1 8 -1 18 0 23 1 5 -5 6 -14 2 -9 -3 -19 -6 -21 -6 -2 0 -4 -5 -4 -11 0
-5 5 -7 10 -4 9 6 14 -8 11 -27 -2 -14 16 -8 33 11 10 11 24 17 32 14 8 -3 14
1 14 10 0 8 5 17 11 19 6 2 2 14 -10 29 -11 15 -17 30 -13 34 4 5 2 6 -3 2 -6
-3 -16 -2 -23 2 -17 10 33 65 53 57 9 -3 12 0 9 8 -7 18 20 38 41 30 12 -5 13
-9 5 -14 -9 -6 -9 -13 1 -31 18 -35 34 -48 47 -40 8 5 2 15 -19 30 -20 15 -27
26 -21 34 15 19 10 47 -7 49 -32 3 -36 4 -50 12 -10 6 -12 5 -7 -2z m6 -45
c-17 -16 -34 -27 -36 -24 -3 3 6 13 20 22 14 10 24 20 21 24 -2 4 3 8 11 8 11
0 5 -10 -16 -30z m-73 -2 c0 -8 -4 -12 -9 -9 -5 3 -6 10 -3 15 9 13 12 11 12
-6z"/>
<path d="M2306 1398 c3 -5 10 -6 15 -3 13 9 11 12 -6 12 -8 0 -12 -4 -9 -9z"/>
<path d="M2400 1400 c-9 -6 -10 -10 -3 -10 6 0 15 5 18 10 8 12 4 12 -15 0z"/>
<path d="M2450 1400 c0 -5 5 -10 10 -10 6 0 10 5 10 10 0 6 -4 10 -10 10 -5 0
-10 -4 -10 -10z"/>
<path d="M2350 1375 c5 -7 6 -15 2 -20 -4 -4 3 -2 16 4 26 14 30 23 5 14 -10
-4 -14 -2 -10 4 3 5 0 10 -8 10 -10 0 -12 -4 -5 -12z"/>
<path d="M2315 1370 c-3 -5 -1 -10 4 -10 6 0 11 5 11 10 0 6 -2 10 -4 10 -3 0
-8 -4 -11 -10z"/>
<path d="M2442 1360 c0 -14 2 -19 5 -12 2 6 2 18 0 25 -3 6 -5 1 -5 -13z"/>
<path d="M2477 1363 c-4 -3 -7 -11 -7 -17 0 -6 5 -5 12 2 6 6 9 14 7 17 -3 3
-9 2 -12 -2z"/>
<path d="M2600 1361 c0 -19 22 -23 38 -7 11 10 12 16 4 16 -7 0 -12 -4 -12
-10 0 -5 -5 -10 -11 -10 -5 0 -7 5 -4 10 3 6 1 10 -4 10 -6 0 -11 -4 -11 -9z"/>
<path d="M2176 1342 c-3 -5 1 -9 9 -9 8 0 12 4 9 9 -3 4 -7 8 -9 8 -2 0 -6 -4
-9 -8z"/>
<path d="M2273 1333 c0 -9 4 -10 14 -2 7 6 13 12 13 14 0 1 -6 2 -13 2 -8 0
-14 -6 -14 -14z"/>
<path d="M2316 1342 c-3 -5 1 -9 9 -9 8 0 12 4 9 9 -3 4 -7 8 -9 8 -2 0 -6 -4
-9 -8z"/>
<path d="M2390 1340 c0 -5 5 -10 10 -10 6 0 10 5 10 10 0 6 -4 10 -10 10 -5 0
-10 -4 -10 -10z"/>
<path d="M2494 1339 c-5 -9 -2 -10 9 -6 9 3 18 2 21 -4 2 -5 3 -4 2 3 -3 17
-23 21 -32 7z"/>
<path d="M2795 1330 c10 -14 30 -35 45 -48 14 -12 18 -21 10 -19 -8 2 -12 2
-7 0 4 -3 7 -12 7 -21 0 -15 -2 -15 -10 -2 -8 13 -10 13 -10 -2 0 -9 -5 -20
-12 -24 -8 -5 -9 -2 -5 9 11 29 -8 27 -41 -4 -19 -18 -37 -27 -45 -23 -6 4 -9
4 -5 -1 4 -4 -1 -20 -11 -34 -10 -14 -17 -36 -15 -48 3 -15 -3 -26 -16 -33
-11 -6 -18 -15 -15 -19 3 -5 -2 -12 -11 -15 -15 -6 -15 -8 1 -26 15 -17 15
-21 3 -39 -8 -12 -18 -18 -21 -14 -4 3 -7 1 -7 -5 0 -21 -3 -27 -19 -39 -12
-9 -19 -9 -30 0 -10 8 -8 3 3 -15 11 -17 24 -25 37 -23 11 2 17 0 14 -6 -4 -5
-10 -7 -14 -4 -5 2 -16 -4 -26 -15 -10 -11 -22 -17 -27 -14 -6 4 -4 -4 3 -17
7 -13 12 -27 11 -31 -3 -13 26 -9 34 4 4 7 3 8 -4 4 -8 -5 -10 -1 -5 10 4 11
3 15 -5 10 -6 -3 -14 -1 -18 5 -5 8 -3 9 6 4 8 -5 11 -4 6 3 -14 23 20 18 41
-7 17 -21 24 -24 34 -13 11 10 10 14 0 25 -12 10 -13 8 -7 -8 7 -19 6 -19 -15
2 -18 17 -20 25 -11 36 7 8 9 16 6 19 -3 4 2 21 11 38 12 23 13 30 3 24 -7 -4
-10 -3 -5 2 5 5 13 10 18 10 22 3 23 5 9 15 -12 8 -10 9 7 4 18 -5 22 -3 17 9
-3 9 -10 14 -14 11 -5 -3 -12 0 -16 6 -4 8 -3 9 4 5 13 -8 17 6 5 18 -10 10
-13 36 -3 36 4 0 10 -7 14 -15 3 -8 12 -12 21 -9 8 3 12 10 9 15 -3 5 -9 7
-14 4 -5 -3 -12 0 -16 6 -5 8 -3 9 6 4 9 -6 11 -4 5 6 -8 12 -6 12 8 0 15 -12
17 -11 17 3 0 10 -4 14 -10 11 -5 -3 -10 -1 -10 5 0 7 7 10 14 7 10 -4 13 -1
9 9 -3 7 0 14 7 14 6 0 9 4 5 10 -3 5 -13 6 -23 3 -14 -5 -13 -2 3 11 11 10
14 14 6 10 -9 -4 -12 -3 -7 4 3 6 15 9 27 7 14 -3 19 1 17 13 -2 10 3 16 10
14 8 -1 11 2 6 9 -5 8 -3 9 5 5 7 -5 10 -10 7 -14 -8 -7 26 -31 44 -31 12 0
11 2 -2 10 -27 15 -22 27 17 46 30 15 33 19 21 32 -7 9 -12 26 -10 37 4 26
-14 44 -41 40 -11 -2 -27 2 -35 8 -8 6 -6 0 5 -14z m60 -10 c4 -6 3 -10 -2 -9
-22 4 -25 -2 -7 -17 18 -15 18 -15 -3 -4 -14 6 -20 16 -17 25 7 17 20 19 29 5z
m-140 -189 c3 -5 2 -12 -3 -15 -5 -3 -9 1 -9 9 0 17 3 19 12 6z m-65 -189 c0
-12 -29 -49 -30 -37 0 6 -5 3 -11 -5 -9 -13 -10 -13 -6 0 2 8 10 14 16 13 10
-3 15 10 12 30 0 4 4 7 9 7 6 0 10 -4 10 -8z"/>
<path d="M2420 1319 c0 -4 10 -6 21 -4 32 6 34 13 4 13 -14 0 -25 -4 -25 -9z"/>
<path d="M2295 1310 c-3 -6 1 -7 9 -4 18 7 21 14 7 14 -6 0 -13 -4 -16 -10z"/>
<path d="M2468 1310 c-9 -6 -14 -18 -11 -28 3 -13 -2 -18 -17 -19 -18 -2 -19
1 -10 13 8 8 8 14 2 14 -13 0 -24 -28 -13 -34 18 -12 46 2 45 23 0 15 4 20 13
17 8 -3 12 -2 8 3 -3 5 1 12 7 14 7 3 9 6 3 6 -5 0 -17 -4 -27 -9z"/>
<path d="M2320 1295 c-7 -8 -17 -12 -23 -8 -6 4 -7 1 -3 -6 6 -9 13 -8 27 5
10 9 19 19 19 21 0 7 -8 2 -20 -12z"/>
<path d="M2392 1290 c-7 -11 -8 -20 -3 -20 9 0 24 30 18 36 -1 2 -8 -6 -15
-16z"/>
<path d="M2508 1303 c0 -5 -2 -12 -3 -18 -5 -25 -18 -44 -26 -39 -5 3 -9 0 -9
-5 0 -18 18 -12 34 10 8 12 12 29 8 38 -5 14 -4 14 11 2 15 -12 17 -12 11 3
-6 16 -23 22 -26 9z"/>
<path d="M2233 1287 c0 -8 6 -14 14 -14 9 0 10 4 2 14 -6 7 -12 13 -14 13 -1
0 -2 -6 -2 -13z"/>
<path d="M2270 1281 c0 -6 4 -13 10 -16 6 -3 7 1 4 9 -7 18 -14 21 -14 7z"/>
<path d="M2351 1273 c7 -12 15 -20 18 -17 3 2 -3 12 -13 22 -17 16 -18 16 -5
-5z"/>
<path d="M2135 1260 c-3 -5 -1 -10 4 -10 6 0 11 5 11 10 0 6 -2 10 -4 10 -3 0
-8 -4 -11 -10z"/>
<path d="M2525 1260 c-3 -5 -1 -10 4 -10 6 0 11 5 11 10 0 6 -2 10 -4 10 -3 0
-8 -4 -11 -10z"/>
<path d="M2253 1247 c0 -8 6 -14 14 -14 9 0 10 4 2 14 -6 7 -12 13 -14 13 -1
0 -2 -6 -2 -13z"/>
<path d="M2325 1250 c-16 -7 -17 -9 -3 -9 9 -1 20 4 23 9 7 11 7 11 -20 0z"/>
<path d="M2395 1240 c-3 -6 -1 -18 5 -27 9 -16 10 -15 5 4 -5 18 -3 22 9 17 9
-3 16 -4 16 -1 0 10 -30 16 -35 7z"/>
<path d="M2355 1230 c-3 -5 -1 -10 4 -10 6 0 11 5 11 10 0 6 -2 10 -4 10 -3 0
-8 -4 -11 -10z"/>
<path d="M2095 1220 c3 -5 8 -10 11 -10 2 0 4 5 4 10 0 6 -5 10 -11 10 -5 0
-7 -4 -4 -10z"/>
<path d="M2190 1216 c7 -7 13 -7 20 0 6 6 3 10 -10 10 -13 0 -16 -4 -10 -10z"/>
<path d="M2285 1215 c-3 -8 -7 -21 -9 -29 -5 -15 18 -16 31 -1 4 4 2 5 -6 0
-11 -6 -13 -2 -9 19 6 28 0 36 -7 11z"/>
<path d="M2254 1200 c0 -13 4 -16 10 -10 7 7 7 13 0 20 -6 6 -10 3 -10 -10z"/>
<path d="M2422 1199 c-7 -12 -11 -23 -8 -26 3 -3 8 2 12 11 3 9 10 13 15 10 5
-3 6 2 3 10 -8 20 -7 20 -22 -5z"/>
<path d="M2330 1200 c0 -5 5 -10 10 -10 6 0 10 5 10 10 0 6 -4 10 -10 10 -5 0
-10 -4 -10 -10z"/>
<path d="M2365 1200 c-3 -6 1 -7 9 -4 18 7 21 14 7 14 -6 0 -13 -4 -16 -10z"/>
<path d="M2778 1189 c17 -18 15 -28 -5 -24 -26 4 -36 -5 -23 -20 8 -9 8 -15 0
-20 -6 -3 -8 -10 -5 -15 3 -5 1 -19 -6 -31 -10 -19 -9 -21 6 -16 9 4 19 7 21
7 2 0 4 5 4 11 0 5 -6 7 -12 3 -9 -5 -8 -2 1 10 8 9 21 14 29 11 21 -8 47 15
30 26 -7 5 -17 9 -23 9 -5 0 -4 -4 4 -9 9 -6 10 -11 2 -15 -6 -4 -11 -3 -11 3
0 6 -8 8 -17 4 -14 -4 -14 -2 2 9 27 20 68 17 94 -6 12 -11 21 -14 21 -8 0 16
-47 45 -60 37 -5 -3 -10 -2 -10 3 0 5 -12 18 -27 27 -16 10 -22 12 -15 4z m2
-35 c0 -8 -19 -13 -24 -6 -3 5 1 9 9 9 8 0 15 -2 15 -3z"/>
<path d="M2095 1180 c-3 -5 -1 -10 4 -10 6 0 11 5 11 10 0 6 -2 10 -4 10 -3 0
-8 -4 -11 -10z"/>
<path d="M2233 1172 c0 -12 5 -22 9 -22 11 0 10 12 -2 30 -7 12 -9 10 -7 -8z"/>
<path d="M2153 1166 c0 -15 22 -15 34 0 4 5 4 6 -1 2 -5 -4 -14 -3 -21 2 -8 7
-12 5 -12 -4z"/>
<path d="M2310 1160 c0 -6 7 -10 15 -10 8 0 15 2 15 4 0 2 -7 6 -15 10 -8 3
-15 1 -15 -4z"/>
<path d="M2016 1147 c3 -10 9 -15 12 -12 3 3 0 11 -7 18 -10 9 -11 8 -5 -6z"/>
<path d="M2190 1146 c0 -2 7 -7 16 -10 8 -3 12 -2 9 4 -6 10 -25 14 -25 6z"/>
<path d="M2276 1136 c5 -13 4 -17 -3 -13 -6 4 -13 0 -17 -8 -3 -8 0 -17 7 -21
7 -4 9 -4 5 1 -4 4 0 14 10 21 14 10 15 15 4 26 -11 11 -12 10 -6 -6z"/>
<path d="M2353 1132 c0 -12 5 -22 9 -22 11 0 10 12 -2 30 -7 12 -9 10 -7 -8z"/>
<path d="M2106 1118 c3 -5 10 -6 15 -3 13 9 11 12 -6 12 -8 0 -12 -4 -9 -9z"/>
<path d="M2193 1115 c0 -8 4 -12 9 -9 5 3 6 10 3 15 -9 13 -12 11 -12 -6z"/>
<path d="M2315 1119 c-11 -16 -1 -19 13 -3 7 8 8 14 3 14 -5 0 -13 -5 -16 -11z"/>
<path d="M2075 1111 c-3 -5 -2 -12 3 -15 5 -3 9 1 9 9 0 17 -3 19 -12 6z"/>
<path d="M2777 1083 c3 -7 -7 -18 -21 -24 -14 -7 -26 -16 -26 -20 0 -9 -20 -6
-39 5 -15 10 17 -44 34 -56 16 -12 25 -9 19 7 -3 8 -11 13 -16 12 -6 -1 -13 5
-15 13 -4 12 -3 12 5 2 5 -8 12 -13 16 -13 20 3 26 0 21 -9 -3 -5 0 -10 7 -10
8 0 14 9 15 19 1 13 -3 18 -12 15 -17 -7 -29 12 -14 22 8 4 9 3 5 -4 -4 -7 -3
-12 3 -12 5 0 12 8 15 18 3 9 15 23 26 29 16 11 18 10 14 -2 -4 -8 -11 -15
-18 -15 -6 0 -4 -5 4 -11 13 -9 12 -10 -2 -5 -18 5 -25 -8 -10 -18 10 -6 43
19 35 27 -3 4 0 13 7 22 14 16 13 17 -29 19 -19 1 -27 -3 -24 -11z"/>
<path d="M1970 1079 c0 -5 5 -7 10 -4 6 3 10 8 10 11 0 2 -4 4 -10 4 -5 0 -10
-5 -10 -11z"/>
<path d="M2040 1080 c-9 -6 -10 -10 -3 -10 6 0 15 5 18 10 8 12 4 12 -15 0z"/>
<path d="M2116 1078 c3 -5 10 -6 15 -3 13 9 11 12 -6 12 -8 0 -12 -4 -9 -9z"/>
<path d="M2246 1077 c3 -10 9 -15 12 -12 3 3 0 11 -7 18 -10 9 -11 8 -5 -6z"/>
<path d="M2300 1086 c0 -2 7 -9 15 -16 9 -7 15 -8 15 -2 0 5 -7 12 -15 16 -8
3 -15 4 -15 2z"/>
<path d="M2400 1080 c-8 -5 -12 -11 -9 -14 2 -3 11 -1 19 4 8 5 12 11 9 14 -2
3 -11 1 -19 -4z"/>
<path d="M2070 1076 c0 -2 8 -10 18 -17 15 -13 16 -12 3 4 -13 16 -21 21 -21
13z"/>
<path d="M2145 1060 c-3 -6 1 -7 9 -4 18 7 21 14 7 14 -6 0 -13 -4 -16 -10z"/>
<path d="M2230 1063 c0 -6 8 -17 18 -24 16 -13 16 -13 2 6 -8 11 -16 22 -17
24 -2 2 -3 0 -3 -6z"/>
<path d="M2270 1060 c0 -5 7 -7 15 -4 11 5 14 1 9 -12 -5 -15 -4 -16 4 -4 6 8
8 18 6 22 -7 11 -34 10 -34 -2z"/>
<path d="M2155 1041 c-3 -5 -2 -12 3 -15 5 -3 9 1 9 9 0 17 -3 19 -12 6z"/>
<path d="M2216 1037 c3 -10 9 -15 12 -12 3 3 0 11 -7 18 -10 9 -11 8 -5 -6z"/>
<path d="M2330 1040 c0 -5 5 -10 10 -10 6 0 10 5 10 10 0 6 -4 10 -10 10 -5 0
-10 -4 -10 -10z"/>
<path d="M2875 1040 c-3 -5 -2 -10 4 -10 5 0 13 5 16 10 3 6 2 10 -4 10 -5 0
-13 -4 -16 -10z"/>
<path d="M2113 1008 c-1 -10 3 -18 9 -18 6 0 8 3 5 7 -4 3 -2 11 3 18 7 8 6
12 -3 12 -7 0 -14 -9 -14 -19z"/>
<path d="M2196 1013 c-6 -14 -5 -15 5 -6 7 7 10 15 7 18 -3 3 -9 -2 -12 -12z"/>
<path d="M2270 1024 c0 -7 68 -74 75 -74 3 0 0 9 -7 20 -7 11 -19 20 -26 20
-7 0 -11 4 -8 8 2 4 -4 13 -15 20 -10 7 -19 10 -19 6z"/>
<path d="M2225 999 c-4 -6 -5 -12 -2 -15 2 -3 7 2 10 11 7 17 1 20 -8 4z"/>
<path d="M2195 980 c3 -5 8 -10 11 -10 2 0 4 5 4 10 0 6 -5 10 -11 10 -5 0 -7
-4 -4 -10z"/>
<path d="M2710 964 c0 -7 -4 -16 -10 -19 -6 -4 -7 1 -3 12 6 16 5 16 -10 4
-24 -19 -21 -30 8 -26 14 1 33 -4 42 -11 24 -18 36 -17 29 2 -4 9 -1 23 5 30
13 16 14 15 -28 19 -22 2 -33 -2 -33 -11z m41 -4 c9 13 10 13 6 0 -2 -8 -10
-15 -17 -15 -7 0 -15 7 -17 15 -4 13 -3 13 6 0 10 -13 12 -13 22 0z"/>
<path d="M2187 959 c7 -7 15 -10 18 -7 3 3 -2 9 -12 12 -14 6 -15 5 -6 -5z"/>
<path d="M2235 960 c3 -5 11 -10 16 -10 6 0 7 5 4 10 -3 6 -11 10 -16 10 -6 0
-7 -4 -4 -10z"/>
<path d="M2300 960 c0 -5 5 -10 11 -10 5 0 7 5 4 10 -3 6 -8 10 -11 10 -2 0
-4 -4 -4 -10z"/>
<path d="M2155 940 c-3 -5 -1 -10 4 -10 6 0 11 5 11 10 0 6 -2 10 -4 10 -3 0
-8 -4 -11 -10z"/>
<path d="M2180 931 c0 -6 4 -13 10 -16 6 -3 7 1 4 9 -7 18 -14 21 -14 7z"/>
<path d="M2230 930 c-9 -6 -10 -10 -3 -10 6 0 15 5 18 10 8 12 4 12 -15 0z"/>
<path d="M2215 900 c3 -5 13 -10 21 -10 8 0 14 -4 14 -10 0 -5 5 -10 10 -10
19 0 10 17 -15 28 -32 15 -38 15 -30 2z"/>
<path d="M2276 862 c-3 -5 1 -9 9 -9 8 0 15 4 15 9 0 4 -4 8 -9 8 -6 0 -12 -4
-15 -8z"/>
<path d="M2610 847 c0 -14 24 -57 32 -57 13 0 10 10 -12 37 -11 14 -20 23 -20
20z"/>
<path d="M2519 807 c-13 -12 -27 -22 -30 -22 -4 0 -11 -4 -16 -9 -4 -5 -3 -6
4 -2 7 4 18 -5 28 -23 10 -20 20 -28 30 -25 8 4 15 1 15 -6 0 -6 5 -8 11 -5 6
5 4 11 -7 19 -12 9 -14 15 -6 20 7 4 16 5 21 1 5 -3 13 -1 16 5 5 8 12 7 23
-2 13 -11 14 -11 10 2 -3 8 -15 14 -26 13 -16 -2 -20 2 -17 17 6 33 -28 43
-56 17z m21 -2 c-14 -17 0 -21 17 -4 9 9 11 8 10 -2 -4 -26 -17 -37 -37 -32
-24 6 -25 11 -3 35 19 22 31 24 13 3z"/>
<path d="M2620 685 c7 -9 15 -13 17 -11 7 7 -7 26 -19 26 -6 0 -6 -6 2 -15z"/>
</g>
</svg>
